<?xml version="1.0" standalone="no"?>
<!DOCTYPE svg PUBLIC "-//W3C//DTD SVG 20010904//EN"
 "http://www.w3.org/TR/2001/REC-SVG-20010904/DTD/svg10.dtd">
<svg version="1.0" xmlns="http://www.w3.org/2000/svg"
 width="1024.000000pt" height="1024.000000pt" viewBox="0 0 1024.000000 1024.000000"
 preserveAspectRatio="xMidYMid meet">

<g transform="translate(0.000000,1024.000000) scale(0.100000,-0.100000)"
fill="#000000" stroke="none">
<path d="M5869 8390 c-162 -15 -289 -72 -398 -179 -111 -110 -162 -218 -176
-368 l-7 -72 70 -74 c86 -90 130 -158 181 -276 128 -295 110 -615 -48 -845
-17 -25 -31 -49 -31 -54 0 -5 37 -18 83 -28 68 -15 123 -19 320 -19 237 0 238
0 233 -21 -3 -12 -13 -73 -21 -135 -22 -160 -95 -405 -141 -476 -8 -13 -11
-23 -6 -23 17 0 200 97 267 142 39 26 122 93 185 151 92 83 133 129 203 230
l89 127 246 -2 c230 -2 252 -1 328 21 100 28 165 64 245 138 76 70 132 154
161 242 21 63 22 84 26 525 2 314 0 480 -8 527 -37 218 -222 405 -465 468 -46
13 -1199 13 -1336 1z m724 -804 c18 -7 46 -29 64 -47 59 -62 67 -123 29 -204
-40 -87 -121 -134 -209 -122 -79 11 -157 107 -157 193 0 83 33 132 115 170 57
27 111 30 158 10z m630 3 c32 -17 87 -70 103 -101 27 -53 6 -156 -44 -211 -50
-56 -165 -78 -229 -44 -73 39 -117 141 -95 222 18 67 40 95 97 121 54 26 132
32 168 13z m-1228 -32 c27 -18 56 -48 66 -67 36 -66 18 -163 -39 -223 -39 -42
-75 -57 -130 -57 -94 0 -192 96 -192 187 0 105 87 193 191 193 48 0 64 -5 104
-33z"/>
<path d="M8028 7365 c-5 -435 -5 -441 -31 -538 -38 -144 -121 -292 -235 -418
-140 -156 -487 -289 -755 -289 -60 0 -117 4 -127 10 -16 8 -30 -6 -106 -106
-93 -122 -152 -181 -273 -273 -214 -161 -447 -254 -696 -276 -38 -3 -108 -13
-155 -21 -58 -11 -108 -14 -157 -9 l-73 7 0 -26 c0 -13 5 -28 12 -32 7 -5 8
-2 3 7 -5 9 -5 11 2 4 5 -5 20 -64 32 -130 45 -239 121 -414 307 -710 35 -55
77 -116 94 -135 33 -37 31 -25 -5 25 -21 28 -37 61 -39 77 -1 5 -13 21 -29 37
-18 20 -23 31 -15 34 10 4 11 7 1 18 -7 7 -13 24 -13 37 0 13 -4 20 -10 17 -6
-3 -7 1 -4 9 3 9 1 16 -5 16 -6 0 -8 6 -5 14 3 8 1 30 -4 50 -7 25 -7 36 0 36
7 0 8 23 4 69 -4 43 -3 72 3 75 5 4 8 16 6 27 -2 11 2 22 10 26 8 3 15 16 15
30 0 13 4 22 9 19 5 -3 11 8 15 25 5 25 10 30 26 26 11 -3 18 -2 15 2 -8 13
53 64 69 58 11 -4 13 -1 9 10 -5 12 -2 15 10 10 8 -3 21 1 27 9 7 8 18 14 26
14 7 0 20 7 29 16 17 18 110 54 137 54 10 0 18 4 18 10 0 16 61 42 86 37 16
-3 24 1 27 15 3 12 11 16 21 12 11 -4 16 -1 16 11 0 14 3 15 15 5 10 -8 15 -9
15 -2 0 6 7 9 15 5 10 -3 15 -1 13 7 -2 8 11 18 30 23 17 5 32 14 32 18 0 5 7
9 15 9 25 0 65 23 65 37 0 7 3 12 8 11 15 -4 50 13 56 27 3 8 16 15 30 15 13
0 26 7 30 15 3 8 11 15 18 15 7 0 24 10 38 23 14 13 32 21 39 19 8 -3 11 0 7
7 -4 6 -2 11 3 11 6 0 11 6 11 14 0 8 9 18 20 21 11 3 27 13 35 21 8 8 24 16
34 17 11 0 17 5 15 9 -3 5 -10 5 -16 2 -7 -4 -8 -2 -4 4 4 7 14 12 22 12 8 0
14 7 14 15 0 9 8 19 18 22 15 6 43 25 89 63 7 6 16 10 21 10 5 0 15 6 21 14 6
8 32 17 56 20 25 4 47 12 51 17 3 6 12 8 19 5 7 -2 16 2 19 10 3 9 20 14 45
14 26 0 41 5 45 16 5 13 9 14 20 5 9 -8 17 -8 20 -2 3 5 3 11 -1 14 -10 5 12
-1 31 -9 8 -3 15 3 18 13 4 14 16 19 44 21 21 2 41 7 42 12 2 6 12 10 22 10
10 0 20 5 22 11 3 10 22 13 111 19 9 1 15 6 11 12 -4 6 1 6 15 -1 17 -10 20
-9 15 4 -7 17 4 22 60 29 22 2 43 11 47 19 5 9 18 13 34 9 14 -2 25 0 25 5 0
5 10 9 23 9 14 -1 21 4 19 13 -2 8 3 11 12 8 10 -4 13 -1 10 7 -3 7 2 16 11
20 11 4 14 2 10 -7 -4 -6 1 -3 10 8 9 11 22 19 30 17 15 -3 115 91 115 108 0
5 5 10 10 10 6 0 10 7 10 15 0 8 6 15 14 15 8 0 18 9 21 20 3 11 11 20 16 20
5 0 9 9 9 21 0 13 4 18 12 13 8 -5 9 -2 5 9 -3 10 -2 17 3 17 5 0 12 17 15 38
4 20 10 46 15 57 4 11 11 28 14 39 6 18 22 179 33 321 3 39 6 84 7 100 2 17
-4 37 -11 47 -11 12 -12 18 -2 24 8 5 10 3 4 -6 -6 -9 -4 -11 5 -5 9 6 11 4 5
-5 -6 -9 -4 -11 4 -6 9 6 8 13 -4 26 -14 15 -18 44 -20 144 -2 69 -6 130 -9
135 -3 5 -3 11 2 13 4 1 5 30 3 63 -4 54 -5 57 -11 25 -5 -26 -7 -17 -7 35 0
39 -5 80 -12 92 -6 12 -11 31 -11 42 0 12 -4 21 -9 21 -5 0 -14 13 -21 29 -6
16 -18 32 -26 35 -8 3 -14 12 -14 21 0 8 -8 24 -17 35 -10 11 -23 35 -29 53
-9 25 -13 -64 -16 -408z"/>
<path d="M4456 7763 c-248 -53 -449 -231 -531 -472 -39 -115 -49 -206 -36
-312 36 -277 214 -495 489 -597 92 -34 293 -43 406 -17 236 52 424 227 506
471 30 91 33 109 33 219 0 137 -21 231 -73 336 -144 288 -472 442 -794 372z
m148 -175 c9 -12 16 -31 16 -41 0 -26 -45 -67 -74 -67 -28 0 -76 51 -76 80 0
48 105 70 134 28z m-260 -74 c35 -34 66 -82 66 -100 0 -10 -36 -57 -80 -103
l-80 -84 -46 6 c-91 10 -123 61 -85 135 24 46 131 149 163 155 42 8 46 7 62
-9z m-167 -456 c41 -46 47 -68 26 -97 -62 -83 -167 -52 -149 45 14 70 81 98
123 52z"/>
<path d="M7450 6255 c-14 -8 -20 -14 -15 -14 6 0 21 6 35 14 14 8 21 14 15 14
-5 0 -21 -6 -35 -14z"/>
<path d="M3848 6210 c-105 -19 -189 -87 -204 -167 -14 -75 46 -187 118 -222
42 -20 62 -20 866 -26 790 -6 824 -5 865 13 23 10 56 31 74 46 37 32 83 118
83 158 0 59 -63 143 -132 179 -36 18 -73 19 -830 23 -436 3 -814 1 -840 -4z
m587 -119 c34 -5 94 -19 135 -32 l75 -23 -50 -7 c-179 -29 -694 -56 -726 -39
-35 19 -21 73 26 98 24 14 452 16 540 3z"/>
<path d="M6816 6173 c-10 -25 -7 -31 14 -26 11 3 20 9 20 14 0 5 7 6 15 3 8
-4 15 -4 15 -1 0 3 -13 10 -29 15 -24 8 -31 7 -35 -5z"/>
<path d="M4149 5585 c-2 0 -7 -40 -13 -110 -18 -210 -68 -448 -132 -625 -67
-187 -198 -426 -317 -578 -27 -35 -48 -64 -46 -65 2 -1 453 -1 1001 1 l998 3
-94 122 c-259 339 -392 698 -431 1170 l-7 77 -51 1 c-35 0 -861 4 -908 4z
m336 -197 c8 -8 -19 -192 -55 -368 -46 -230 -97 -406 -148 -510 -34 -69 -40
-75 -70 -78 -45 -5 -122 40 -122 71 0 13 4 27 9 32 6 6 34 71 64 145 88 221
144 437 162 630 10 98 5 94 86 87 39 -3 73 -7 74 -9z"/>
<path d="M3580 5555 c58 -62 254 -126 267 -87 3 8 -9 12 -44 12 -70 0 -120 17
-188 62 -48 31 -55 34 -35 13z"/>
<path d="M5431 5364 c0 -11 3 -14 6 -6 3 7 2 16 -1 19 -3 4 -6 -2 -5 -13z"/>
<path d="M5441 5314 c0 -11 3 -14 6 -6 3 7 2 16 -1 19 -3 4 -6 -2 -5 -13z"/>
<path d="M5729 3996 c-3 -3 -496 -6 -1095 -6 l-1090 -1 -15 -41 c-12 -32 -39
-61 -124 -132 -132 -110 -200 -203 -241 -328 -25 -77 -27 -99 -31 -288 l-3
-205 1504 0 1504 0 6 59 c10 98 6 266 -8 346 -36 198 -98 293 -311 474 -33 29
-64 66 -74 88 -9 22 -19 37 -22 34z m-1602 -211 c23 -16 25 -22 21 -71 -5 -64
-31 -104 -74 -117 -16 -4 -75 -6 -130 -2 l-102 5 -42 -47 c-23 -27 -65 -95
-92 -153 -28 -58 -60 -113 -72 -122 -29 -24 -67 -22 -107 5 -30 20 -34 28 -33
65 1 77 48 147 159 240 55 45 128 110 161 143 38 37 75 64 95 70 53 13 186 4
216 -16z"/>
<path d="M6460 3493 c0 -4 10 -46 22 -93 42 -168 18 -422 -47 -490 l-24 -25
45 -75 c65 -109 84 -180 84 -309 -1 -127 -17 -202 -65 -296 -78 -155 -205
-246 -399 -286 -83 -17 -277 -27 -264 -13 3 3 60 9 126 14 77 6 139 17 174 30
29 11 59 20 66 20 8 0 27 9 43 21 16 11 29 17 29 14 0 -3 13 3 29 14 15 11 32
17 36 13 5 -4 5 1 2 11 -6 16 2 21 30 18 17 -2 28 20 14 28 -8 5 -2 20 19 46
30 37 31 38 37 16 4 -16 8 -19 14 -10 4 8 1 17 -8 24 -14 10 -14 15 1 43 25
48 12 38 -22 -15 -51 -83 -137 -160 -226 -202 -45 -22 -99 -42 -121 -46 -22
-4 -652 -7 -1400 -6 -1558 1 -1440 -6 -1596 91 -45 28 -84 49 -86 47 -9 -9
104 -89 171 -122 39 -20 105 -42 146 -50 41 -9 82 -18 90 -22 8 -3 18 -5 23
-5 4 1 24 -8 45 -21 66 -41 156 -82 182 -82 14 0 25 -5 25 -12 0 -7 6 -18 13
-24 10 -10 12 -10 12 2 0 11 2 11 9 1 4 -8 11 -13 15 -12 16 4 73 -14 96 -31
14 -10 43 -20 65 -22 22 -1 45 -6 52 -10 6 -4 33 -8 59 -9 27 -2 52 -7 57 -13
4 -6 10 -5 16 5 8 12 13 10 31 -10 17 -19 23 -21 29 -11 6 10 17 11 37 6 16
-5 32 -8 37 -7 4 1 7 -2 7 -8 0 -6 9 -6 25 0 16 6 25 6 25 0 0 -11 59 -8 79 5
11 6 13 4 8 -9 -4 -9 -3 -15 2 -11 5 3 21 1 36 -5 18 -7 31 -7 39 0 9 6 17 6
26 -3 10 -9 11 -9 6 1 -5 9 9 12 59 12 49 0 67 -4 71 -15 4 -8 11 -12 16 -9 6
4 5 10 -3 15 -11 7 -11 9 2 9 9 0 19 -3 23 -7 21 -21 68 10 48 32 -4 5 -2 5 5
1 6 -3 10 -15 8 -25 -3 -15 2 -17 23 -13 15 3 30 10 34 16 5 6 8 0 9 -14 0
-23 1 -23 8 -5 5 13 18 20 35 20 18 1 25 -3 22 -12 -3 -7 -1 -13 4 -13 6 0 10
4 10 10 0 5 7 7 15 4 8 -4 15 -1 15 6 0 10 3 10 15 0 11 -9 15 -9 15 -1 0 7
10 3 22 -8 19 -18 22 -19 33 -5 8 12 18 14 36 8 31 -11 71 -13 84 -4 16 10 35
6 45 -10 7 -10 12 -12 18 -4 8 13 74 25 66 12 -3 -4 0 -8 5 -8 6 0 11 5 11 10
0 6 5 10 11 10 7 0 9 -9 6 -22 l-6 -23 20 24 c16 19 22 21 34 11 8 -7 13 -16
10 -19 -2 -4 2 -8 10 -8 18 0 19 9 3 25 -7 7 -8 12 -2 12 5 0 15 -5 20 -10 7
-7 19 -7 35 -2 18 7 28 6 38 -5 9 -10 24 -13 42 -9 15 3 30 2 33 -2 6 -10 57
-9 74 1 6 5 12 4 12 -1 0 -6 7 -13 16 -16 9 -4 13 -2 8 5 -4 8 1 9 16 4 12 -4
20 -3 17 1 -3 5 15 10 40 11 25 1 52 8 60 15 12 10 18 9 28 -5 8 -11 16 -14
19 -8 4 5 16 8 27 6 15 -3 19 0 15 10 -3 8 -1 15 4 15 6 0 10 -7 10 -16 0 -14
2 -15 17 -3 9 8 14 9 11 4 -4 -6 -3 -17 3 -25 7 -12 9 -9 9 10 l1 25 12 -22
c12 -22 13 -22 25 -3 7 11 17 20 23 20 5 0 7 -4 4 -10 -3 -5 -1 -18 5 -27 9
-14 10 -14 7 -2 -3 9 -1 22 4 30 7 11 9 10 9 -6 0 -16 2 -17 10 -5 5 8 12 11
16 7 4 -4 12 -2 19 3 7 6 23 5 44 -3 26 -10 33 -9 41 2 7 13 11 13 26 0 13
-10 16 -11 10 -1 -7 11 3 12 50 8 36 -4 60 -3 64 4 4 7 15 7 31 2 18 -7 27 -5
37 7 12 14 13 14 9 1 -3 -11 3 -16 19 -18 13 -1 24 2 24 6 0 7 66 14 143 16
29 1 36 4 32 16 -5 12 -4 13 6 3 18 -18 32 -16 25 4 -6 15 -4 15 14 -2 18 -17
20 -17 20 -1 0 9 5 14 10 11 6 -3 10 -2 10 4 0 6 7 7 17 4 11 -4 14 -3 9 5 -5
8 0 12 13 12 12 0 21 4 21 10 0 5 8 7 18 4 16 -5 16 -5 0 6 -22 14 -24 40 -3
40 8 0 15 -5 15 -10 0 -6 6 -5 14 2 8 7 12 17 9 22 -3 4 -10 2 -15 -5 -8 -11
-9 -11 -5 1 2 8 15 16 30 18 17 2 24 8 21 17 -3 7 -1 16 4 19 6 3 8 14 5 25
-3 11 4 27 17 39 14 13 23 35 25 63 1 24 8 45 14 47 14 5 14 52 0 52 -5 0 -7
5 -4 10 4 6 12 7 18 3 7 -4 6 0 -2 10 -10 13 -11 20 -2 31 10 12 9 18 -6 33
-11 11 -18 33 -18 56 0 20 -4 37 -9 37 -4 0 -6 6 -3 14 3 7 -1 23 -9 35 -9 12
-11 21 -5 21 6 0 11 5 11 11 0 5 -4 7 -10 4 -10 -6 -14 7 -11 34 2 7 -2 10 -8
6 -8 -4 -8 1 -2 19 8 20 6 27 -12 41 -12 9 -17 13 -10 10 25 -12 20 13 -8 39
-21 20 -29 37 -29 61 0 19 -5 37 -11 41 -6 3 -8 17 -5 30 4 13 2 24 -4 24 -9
0 -7 56 5 130 4 19 7 62 8 95 2 33 7 59 13 58 11 -2 9 46 -4 100 -7 25 -7 39
1 44 5 3 7 1 3 -5 -3 -6 -3 -13 2 -16 4 -2 8 6 8 20 0 13 -4 24 -9 24 -5 0 -7
7 -3 15 3 9 0 15 -10 15 -11 0 -14 5 -10 16 4 9 2 22 -4 29 -5 6 -16 31 -24
54 -14 38 -47 90 -87 134 -9 10 -21 34 -27 55 -30 105 -36 123 -44 128 -4 3
-8 2 -8 -3z m270 -1117 c0 -3 -4 -8 -10 -11 -5 -3 -10 -1 -10 4 0 6 5 11 10
11 6 0 10 -2 10 -4z m-1250 -460 c-13 -12 -28 -12 -95 -1 l-80 13 95 1 c81 1
92 -1 80 -13z m-1087 -3 c-7 -2 -19 -2 -25 0 -7 3 -2 5 12 5 14 0 19 -2 13 -5z
m140 0 c-18 -2 -48 -2 -65 0 -18 2 -4 4 32 4 36 0 50 -2 33 -4z m-745 -10
c-10 -2 -28 -2 -40 0 -13 2 -5 4 17 4 22 1 32 -1 23 -4z m1295 0 c-24 -2 -62
-2 -85 0 -24 2 -5 4 42 4 47 0 66 -2 43 -4z m421 -311 c3 -5 -1 -9 -9 -9 -8 0
-12 4 -9 9 3 4 7 8 9 8 2 0 6 -4 9 -8z"/>
<path d="M3314 2771 c-69 -7 -91 -14 -142 -45 -81 -49 -107 -99 -100 -194 9
-116 70 -207 173 -258 l51 -24 1354 2 1355 3 47 28 c62 38 124 106 137 153 6
22 11 71 11 109 0 88 -18 120 -96 172 l-57 38 -1004 6 c-552 4 -1149 9 -1326
12 -177 3 -359 2 -403 -2z m1001 -121 c256 -15 325 -22 325 -30 0 -33 -148
-45 -805 -61 -264 -6 -500 -12 -524 -13 -64 -2 -74 20 -32 73 l33 41 421 0
c232 0 494 -4 582 -10z"/>
<path d="M6400 2131 c0 -5 -7 -17 -16 -25 -8 -9 -12 -16 -7 -16 15 0 43 39 33
45 -6 4 -10 2 -10 -4z"/>
<path d="M4459 1591 c12 -8 51 -4 51 5 0 2 -15 4 -32 4 -23 0 -29 -3 -19 -9z"/>
<path d="M4930 1590 c0 -5 5 -10 10 -10 6 0 10 5 10 10 0 6 -4 10 -10 10 -5 0
-10 -4 -10 -10z"/>
</g>
</svg>
